<?xml version="1.0" encoding="UTF-8" standalone="no"?>
<!-- Created with Inkscape (http://www.inkscape.org/) -->

<svg
   width="108.97774mm"
   height="49.296001mm"
   viewBox="0 0 108.97774 49.296002"
   version="1.1"
   id="svg1"
   xmlns="http://www.w3.org/2000/svg"
   xmlns:svg="http://www.w3.org/2000/svg">
  <defs
     id="defs1" />
  <g
     id="layer1"
     transform="translate(-0.78238642,-0.02768708)">
    <path
       fill="#f38020"
       d="M 75.087838,48.529666 C 77.998255,41.650506 74.029505,38.475504 70.060755,38.475504 L 30.902422,37.946337 c -1.058333,0 -1.058333,-1.5875 0.264583,-1.852083 l 39.6875,-0.529167 c 4.497917,-0.264583 9.789583,-3.96875 11.377083,-8.731249 0,0 2.645833,-5.55625 2.38125,-6.35 A 25.664583,25.664583 0 0 0 35.135755,17.573421 C 25.081589,10.958838 14.498256,19.954671 16.879506,29.744254 4.1795058,30.538004 -0.31841103,41.915086 1.0045058,48.794256 c 0,0.26458 0.2645834,0.52916 0.79375,0.52916 H 74.294088 c 0.264584,0 0.79375,-0.26458 0.79375,-0.79375 z"
       id="path1"
       style="stroke-width:0.264583" />
    <path
       fill="#faae40"
       d="m 88.317005,21.542171 c -1.058334,0 -1.5875,-0.264583 -1.852084,0.264583 l -1.322916,5.55625 c -1.322917,4.233333 0.79375,7.9375 5.291666,8.202083 l 8.466667,0.529167 c 1.058333,0 1.058333,1.5875 -0.264583,1.852083 l -8.73125,0.264584 c -9.525,1.058335 -12.170833,10.318745 -12.170833,10.318745 0,0.52917 0,0.79375 0.529166,0.79375 h 29.897912 l 0.79375,-0.52916 A 21.43125,21.43125 0 0 0 88.317005,21.542171"
       id="path2"
       style="stroke-width:0.264583" />
  </g>
</svg>
