<?xml version="1.0" encoding="UTF-8" standalone="no"?>
<!-- Created with Inkscape (http://www.inkscape.org/) -->

<svg
   width="108mm"
   height="75mm"
   viewBox="0 0 108 75"
   version="1.1"
   id="svg1"
   xmlns="http://www.w3.org/2000/svg"
   xmlns:svg="http://www.w3.org/2000/svg">
  <defs
     id="defs1" />
  <g
     id="layer1">
    <path
       stroke="#066da5"
       stroke-width="10.0542"
       d="m 61.369746,29.799968 h 11.1125 m -24.341667,0 h 11.1125 m -24.077083,0 h 11.1125 m -24.077083,0 h 10.847916 m -24.0770827,0 H 20.094746 m 2.116667,-12.170833 h 10.847916 m 2.116667,0 h 11.1125 m 1.852083,0 h 11.1125 M 48.140579,5.4583016 h 11.1125"
       id="path1" />
    <path
       fill="#066da5"
       d="m 107.93642,30.329135 c 0,0 -4.7625,-4.497917 -14.552091,-2.910417 -1.058334,-7.672917 -9.260417,-12.170833 -9.260417,-12.170833 0,0 -7.672917,9.260416 -2.116667,19.579166 -1.5875,0.79375 -4.233333,1.852083 -8.202083,1.852083 H 1.0447465 c -1.32291667,5.027084 -1.32291667,38.364581 35.1895825,38.364581 26.19375,0 45.772916,-12.17083 55.033333,-34.395831 C 105.026,41.706218 107.93642,30.329135 107.93642,30.329135"
       id="path2"
       style="stroke-width:0.264583" />
  </g>
</svg>
