<?xml version="1.0" encoding="UTF-8" standalone="no"?>
<svg
   version="1.1"
   width="1280"
   height="1280"
   viewBox="0 0 1280 1280"
   xml:space="preserve"
   id="svg13"
   xmlns="http://www.w3.org/2000/svg"
   xmlns:svg="http://www.w3.org/2000/svg">
<desc
   id="desc1">Created with Fabric.js 5.3.0</desc>
<defs
   id="defs1" />



<g
   transform="matrix(3.5082428,0,0,3.5082428,628.68044,639.56417)"
   id="logo-logo">
<g
   paint-order="stroke"
   id="g12">
		<g
   transform="matrix(0.16702914,0,0,-0.16702914,0,98.275772)"
   id="g1">
<path
   style="opacity:1;fill:#bcbcac;fill-rule:evenodd;stroke:none;stroke-width:1;stroke-linecap:butt;stroke-linejoin:miter;stroke-miterlimit:4;stroke-dasharray:none;stroke-dashoffset:0"
   paint-order="stroke"
   d="M 260.945,151.605 C 258.2311,86.1975 267.3565,19.5482 254.2456,-44.8292 233.4653,-119.0168 154.7972,-162.75 80.4815,-154.055 c -72.5318,1.5817 -145.5061,-3.426 -217.7178,3.0275 -81.2376,14.3035 -133.6516,97.9299 -123.7087,177.436 0,42.5488 0,85.0977 0,127.6465 173.9633,0 347.9267,0 521.89,0 z"
   stroke-linecap="round"
   id="path1" />
</g>
		<g
   transform="matrix(0.16702914,0,0,-0.16702914,5.2338582,98.275772)"
   id="g2">
<path
   style="opacity:1;fill:#74746d;fill-rule:evenodd;stroke:none;stroke-width:1;stroke-linecap:butt;stroke-linejoin:miter;stroke-miterlimit:4;stroke-dasharray:none;stroke-dashoffset:0"
   paint-order="stroke"
   d="M 229.61,151.605 C 226.8961,86.1975 236.0215,19.5482 222.9106,-44.8292 202.1303,-119.0168 123.4622,-162.75 49.1465,-154.055 c -72.5318,1.5817 -145.5061,-3.426 -217.7178,3.0275 -44.7304,8.4684 -79.3248,35.4191 -18.4551,27.1525 68.7588,1.5523 137.9554,-3.3852 206.3939,3.0325 81.2395,14.308 133.6559,97.9309 123.7125,177.441 0,32.4855 0,64.971 0,97.4565 28.8433,0 57.6867,0 86.53,0 z"
   stroke-linecap="round"
   id="path2" />
</g>
		<g
   transform="matrix(0.16702914,0,0,-0.16702914,0,-28.926107)"
   id="g3">
<path
   style="opacity:1;fill:#ffd900;fill-rule:evenodd;stroke:none;stroke-width:1;stroke-linecap:butt;stroke-linejoin:miter;stroke-miterlimit:4;stroke-dasharray:none;stroke-dashoffset:0"
   paint-order="stroke"
   d="m 258.505,-569.25 c -51.66,0 -103.32,0 -154.98,0 0,153.1967 0,306.3933 0,459.59 -16.648,34.9545 -68.8989,-12.7809 -21.5832,-10.49 1.3841,-148.5136 0.1978,-299.5977 0.5932,-449.1 -55.0233,0 -110.0467,0 -165.07,0 0,149.7 0,299.4 0,449.1 40.9535,-5.3289 9.3753,39.2847 -17.92,17.92 -7.0104,-49.0844 -1.1363,-100.7258 -3.07,-150.8176 0,-105.4008 0,-210.8016 0,-316.2024 -52.4733,0 -104.9467,0 -157.42,0 6.8987,131.9558 -39.822,263.9916 -127.6566,362.6622 -135.9424,174.9216 -126.6802,442.653 21.2743,607.6614 141.2652,169.9349 403.3631,218.4513 596.2659,110.8786 191.3758,-98.439 296.579,-333.1894 242.9381,-541.5459 -18.827,-90.7584 -73.4529,-166.9617 -129.3885,-238.4378 -59.962,-87.8999 -85.5815,-195.6043 -81.5432,-301.2185 z m -229.52,431.79 c 49.6521,49.5205 -55.2129,105.7194 -69.1383,37.2519 -9.4832,-38.4673 42.2163,-66.3193 69.1383,-37.2519 z m -157.37,94.99 C -87.8163,-18.1108 -43.6474,13.177 8.0214,6.9658 60.2751,17.2816 98.1921,-46.3522 141.635,-36.32 148.3316,19.9191 56.356,40.2232 9.7608,45.173 -47.0056,46.5126 -116.2124,27.5291 -146.655,-22.6 c -0.6854,-10.1945 8.0497,-19.7057 18.27,-19.87 z m -71.01,77.37 c 60.8983,43.0733 132.9603,84.8176 212.3575,76.9705 C 90.2893,124.2697 150.5689,43.7536 212.635,41.04 205.4629,115.8576 82.958,142.9753 14.7063,150.0777 -69.4626,152.6533 -167.3008,124.1168 -217.665,54.77 c -0.6765,-10.1957 8.0467,-19.7016 18.27,-19.87 z m -71,77.37 c 45.6756,26.5107 87.3303,67.0081 140.8077,82.2859 132.9987,50.1515 289.4771,14.8682 392.7473,-81.1934 68.1676,22.5274 -45.7784,81.4053 -76.1388,97.8975 -151.9514,78.4663 -353.6862,50.5954 -473.9912,-72.0125 -5.8407,-11.7309 3.4565,-26.8975 16.575,-26.9775 z"
   stroke-linecap="round"
   id="path3" />
</g>
		<g
   transform="matrix(0.16702914,0,0,-0.16702914,41.281253,-28.919426)"
   id="g4">
<path
   style="opacity:1;fill:#e2c103;fill-rule:evenodd;stroke:none;stroke-width:1;stroke-linecap:butt;stroke-linejoin:miter;stroke-miterlimit:4;stroke-dasharray:none;stroke-dashoffset:0"
   paint-order="stroke"
   d="m 11.355,-569.21 c -28.0233,0 -56.0467,0 -84.07,0 -5.9749,131.6926 42.3503,262.6583 129.5616,361.1061 C 194.8029,-30.5717 185.4013,241.1193 35.2583,408.5933 -34.9266,490.2083 -132.5257,547.8334 -238.075,569.21 -16.6532,569.2189 188.6456,397.7563 228.58,180.0437 261.2172,27.6155 211.2096,-134.6994 107.9684,-249.7531 39.7964,-340.9585 9.1121,-456.1424 13.795,-569.21 Z"
   stroke-linecap="round"
   id="path4" />
</g>
		<g
   transform="matrix(0.16702914,0,0,-0.16702914,0,-28.926107)"
   id="g5">
<path
   style="opacity:1;fill:#100f0f;fill-rule:nonzero;stroke:none;stroke-width:1;stroke-linecap:butt;stroke-linejoin:miter;stroke-miterlimit:4;stroke-dasharray:none;stroke-dashoffset:0"
   paint-order="stroke"
   d="m 0.005,609.95 c 238.1792,4.4695 462.6446,-174.3976 512.452,-407.1531 40.6438,-167.1227 -10.5935,-348.707 -124.2499,-476.2458 -69.907,-91.0116 -92.2488,-207.8499 -86.5621,-320.3248 7.1457,-30.1468 -35.3078,-10.6944 -52.827,-16.1763 -183.4877,0 -366.9753,0 -550.463,0 3.6408,104.1581 -5.9809,212.9033 -64.1258,302.672 -49.1146,72.0603 -108.9655,139.2316 -133.3206,225.1725 -75.9977,217.1036 12.1571,476.6899 205.0495,602.2341 86.1422,58.4895 189.937,90.1073 294.0469,89.8214 z M 341.375,425.41 C 188.3478,584.2798 -76.6385,612.9406 -260.2142,490.752 -443.6297,377.7467 -529.3678,134.4994 -458.1827,-68.6489 c 30.4136,-112.0716 130.3473,-185.2336 167.3717,-293.9955 25.3086,-64.8211 33.9468,-134.9159 32.316,-204.1656 172.3333,0 344.6667,0 517,0 -6.5554,131.6517 40.6386,263.1338 128.0796,361.5916 135.4767,174.2197 126.0726,441.0219 -21.535,605.1938 -7.5849,8.7569 -15.4832,17.2423 -23.6746,25.4346 z"
   stroke-linecap="round"
   id="path5" />
</g>
		<g
   transform="matrix(0.16702914,0,0,-0.16702914,8.3514572e-4,100.07802)"
   id="g6">
<path
   style="opacity:1;fill:#100f0f;fill-rule:nonzero;stroke:none;stroke-width:1;stroke-linecap:butt;stroke-linejoin:miter;stroke-miterlimit:4;stroke-dasharray:none;stroke-dashoffset:0"
   paint-order="stroke"
   d="M 301.64,183.965 C 299.2357,110.1038 307.3872,35.3031 295.4814,-37.7559 273.2333,-132.2586 175.343,-194.5013 80.4765,-183.965 c -75.4628,1.812 -151.459,-4.1095 -226.5017,3.9747 -98.9439,18.0249 -166.8575,118.9384 -155.6148,217.1888 0,48.9222 0,97.8443 0,146.7665 23.281,0.0965 54.0535,7.6845 43.14,-26.4135 2.6572,-63.8374 -6.3643,-128.9354 6.8502,-191.7046 21.1082,-75.1235 101.0191,-115.0513 174.9467,-106.6719 71.3012,1.6049 143.0615,-3.4855 214.0292,3.0966 80.3417,14.2943 130.3848,96.9074 121.1739,174.9269 0,48.9222 0,97.8443 0,146.7665 14.38,0 28.76,0 43.14,0 z"
   stroke-linecap="round"
   id="path6" />
</g>
		<g
   transform="matrix(0.16702914,0,0,-0.16702914,0,27.56816)"
   id="g7">
<path
   style="opacity:1;fill:#100f0f;fill-rule:nonzero;stroke:none;stroke-width:1;stroke-linecap:butt;stroke-linejoin:miter;stroke-miterlimit:4;stroke-dasharray:none;stroke-dashoffset:0"
   paint-order="stroke"
   d="m -80.085,-228.58 c -23.3164,-36.6298 -30.8975,21.4612 -25.89,41.5069 0.6823,140.1934 -1.3622,280.6594 1.018,420.6829 24.0283,31.5676 74.0088,-17.9919 26.0252,-17.9798 C -81.617,70.0076 -79.32,-81.1511 -80.085,-228.58 Z m 140.66,470.1 c 26.4588,5.353 54.9919,-3.0346 45.4,-35.5902 -0.681,-146.4818 1.3598,-293.2355 -1.0164,-439.5481 -31.2789,-25.3465 -25.1101,31.4286 -24.8636,50.3186 0,132.9766 0,265.9531 0,398.9297 -25.2783,-3.2694 -18.9609,1.3786 -19.52,25.89 z"
   stroke-linecap="round"
   id="path7" />
</g>
		<g
   transform="matrix(0.16702914,0,0,-0.16702914,0,-10.808456)"
   id="g8">
<path
   style="opacity:1;fill:#100f0f;fill-rule:evenodd;stroke:none;stroke-width:1;stroke-linecap:butt;stroke-linejoin:miter;stroke-miterlimit:4;stroke-dasharray:none;stroke-dashoffset:0"
   paint-order="stroke"
   d="M 0.005,43.44 C 74.3887,43.5524 37.6145,-77.8047 -24.2822,-36.0208 -59.7625,-14.0607 -41.7193,45.0634 0.005,43.44 Z"
   stroke-linecap="round"
   id="path8" />
</g>
		<g
   transform="matrix(0.16702914,0,0,-0.16702914,0,-59.633585)"
   id="g9">
<path
   style="opacity:1;fill:#100f0f;fill-rule:nonzero;stroke:none;stroke-width:1;stroke-linecap:butt;stroke-linejoin:miter;stroke-miterlimit:4;stroke-dasharray:none;stroke-dashoffset:0"
   paint-order="stroke"
   d="m -255.015,-68.355 c -69.7632,-15.0285 -11.9228,65.0684 24.4062,73.4397 C -74.1479,111.7254 156.8105,93.0023 289.1911,-43.5837 277.6576,-117.477 208.2866,-15.9936 169.0286,-8.9381 32.6463,61.1257 -143.2583,36.9254 -255.015,-68.355 Z"
   stroke-linecap="round"
   id="path9" />
</g>
		<g
   transform="matrix(0.16702914,0,0,-0.16702914,4.5162966e-4,-44.40178)"
   id="g10">
<path
   style="opacity:1;fill:#100f0f;fill-rule:nonzero;stroke:none;stroke-width:1;stroke-linecap:butt;stroke-linejoin:miter;stroke-miterlimit:4;stroke-dasharray:none;stroke-dashoffset:0"
   paint-order="stroke"
   d="m -184.0177,-54.5225 c -71.7628,-15.2633 -9.2078,70.0959 29.7782,74.406 C -37.5897,87.5594 124.9231,68.8413 218.1842,-29.7612 206.2196,-106.2868 131.6177,5.2581 87.1858,2.8757 -4.9938,34.6123 -112.7871,12.3309 -184.0177,-54.5225 Z"
   stroke-linecap="round"
   id="path10" />
</g>
		<g
   transform="matrix(0.16702914,0,0,-0.16702914,2.1064197e-4,-29.170185)"
   id="g11">
<path
   style="opacity:1;fill:#100f0f;fill-rule:nonzero;stroke:none;stroke-width:1;stroke-linecap:butt;stroke-linejoin:miter;stroke-miterlimit:4;stroke-dasharray:none;stroke-dashoffset:0"
   paint-order="stroke"
   d="M -113.0163,-40.7013 C -182.7445,-56.2126 -125.7382,26.662 -85.2995,28.2763 -9.0262,63.111 90.5891,47.0405 147.1842,-15.9357 139.1978,-87.7139 72.8745,6.1167 31.3962,0.3387 -19.7741,10.283 -74.8493,-5.049 -113.0163,-40.7013 Z"
   stroke-linecap="round"
   id="path11" />
</g>
</g>
</g></svg>
