<?xml version="1.0" standalone="no"?>
<!DOCTYPE svg PUBLIC "-//W3C//DTD SVG 20010904//EN"
 "http://www.w3.org/TR/2001/REC-SVG-20010904/DTD/svg10.dtd">
<svg version="1.0" xmlns="http://www.w3.org/2000/svg"
 width="300.000000pt" height="300.000000pt" viewBox="0 0 300.000000 300.000000"
 preserveAspectRatio="xMidYMid meet">
<metadata>
Created by potrace 1.14, written by Peter Selinger 2001-2017
</metadata>
<g transform="translate(0.000000,300.000000) scale(0.100000,-0.100000)"
fill="#000000" stroke="none">
<path d="M1344 2986 c-677 -111 -1050 -836 -743 -1447 21 -42 62 -108 90 -145
117 -154 162 -236 201 -369 19 -63 21 -106 27 -405 l6 -335 27 -57 c49 -106
142 -185 250 -214 75 -20 521 -20 596 0 108 29 201 108 250 214 l27 57 6 335
c6 299 8 342 27 405 39 133 84 215 201 369 289 381 260 928 -70 1280 -188 202
-425 310 -699 321 -70 3 -146 -1 -196 -9z m261 -77 c584 -71 957 -651 774
-1203 -39 -117 -73 -179 -164 -301 -143 -191 -203 -344 -212 -542 l-6 -113
-148 0 -149 0 0 445 0 445 -40 0 c-33 0 -40 -3 -40 -20 0 -11 7 -20 15 -20 13
0 15 -54 15 -425 l0 -425 -150 0 -150 0 0 425 c0 371 2 425 15 425 8 0 15 9
15 20 0 17 -7 20 -40 20 l-40 0 0 -445 0 -445 -149 0 -148 0 -6 108 c-10 199
-68 352 -203 532 -116 156 -166 257 -198 400 -57 252 -6 509 145 731 140 206
386 355 644 389 89 11 120 11 220 -1z m233 -2396 c-4 -174 -21 -225 -95 -294
-84 -77 -108 -83 -363 -87 -256 -5 -265 -3 -319 73 -47 65 -61 137 -61 307 l0
148 421 0 421 0 -4 -147z"/>
<path d="M1309 2300 c-96 -24 -173 -58 -257 -114 -87 -58 -116 -88 -107 -115
12 -40 41 -35 112 20 130 100 276 149 443 149 167 0 313 -49 443 -149 71 -55
100 -60 112 -20 9 27 -20 57 -107 115 -141 94 -278 134 -453 133 -72 0 -137
-7 -186 -19z"/>
<path d="M1351 2105 c-80 -23 -136 -50 -208 -101 -55 -39 -64 -50 -61 -72 5
-42 46 -41 104 3 94 72 193 105 314 105 121 0 220 -33 314 -105 60 -46 101
-46 101 0 0 25 -10 36 -76 80 -108 74 -178 96 -319 101 -82 3 -130 0 -169 -11z"/>
<path d="M1405 1911 c-52 -13 -119 -47 -153 -76 -25 -20 -32 -34 -30 -54 4
-38 38 -38 89 -2 50 37 125 61 189 61 64 0 139 -24 189 -61 51 -36 85 -36 89
2 4 33 -39 71 -118 107 -59 26 -196 39 -255 23z"/>
<path d="M1480 1703 c-75 -27 -81 -123 -10 -153 79 -33 150 70 88 127 -26 24
-56 34 -78 26z"/>
</g>
</svg>
